<svg width="49" height="31" viewBox="0 0 49 31" fill="none" xmlns="http://www.w3.org/2000/svg">
<path d="M47.6714 13.3564C46.8555 11.6002 45.6582 10.2622 44.0899 9.34228C42.5217 8.41043 40.3813 7.95646 37.6688 7.95646C34.331 7.95646 31.7138 8.98388 29.8277 11.0507C27.931 13.1055 26.9774 15.8055 26.9774 19.1386C26.9774 21.4921 27.4542 23.5231 28.3973 25.2673C29.3403 26.9995 30.5377 28.2659 31.9681 29.0663C33.4092 29.8548 35.38 30.261 37.8913 30.261C40.7734 30.261 42.988 29.7951 44.535 28.8632C45.9654 28.0031 47.1946 26.6292 48.233 24.7416C48.3495 24.5146 48.233 24.2279 47.9893 24.204L41.9284 23.5589C41.5893 23.5231 41.2396 23.6545 41.0065 23.9412C40.6886 24.3593 40.3813 24.658 40.0847 24.8491C39.4383 25.2553 38.7602 25.4584 38.0502 25.4584C36.9165 25.4584 36.0052 24.9925 35.3059 24.0607C34.8078 23.4275 34.49 22.4478 34.3628 21.1337H48.8052C48.8052 21.1337 48.8793 21.0023 48.9005 20.9306V20.2138C48.9005 17.3944 48.4873 15.1126 47.6714 13.3564ZM34.3734 17.2152C34.5006 15.9369 34.7761 14.9811 35.2105 14.336C35.8992 13.3086 36.8211 12.7949 37.9761 12.7949C38.9721 12.7949 39.7774 13.1413 40.3919 13.8223C41.0065 14.5033 41.3774 15.6382 41.5257 17.2152H34.3734ZM22.8238 16.7254C21.9337 15.4829 20.5562 14.6108 18.6807 14.0971C19.9099 13.6192 20.8529 12.9621 21.4887 12.1259C22.4529 10.8834 22.9403 9.39006 22.9403 7.64584C22.9403 5.57906 22.2622 3.83483 20.9165 2.42512C19.5602 1.0154 17.6317 0.310547 15.1099 0.310547H1.76953C0.794698 0.310547 0 1.20655 0 2.30565V27.7403C0 28.8632 0.805293 29.7712 1.80132 29.7712H13.9337C14.5271 29.7712 15.7351 29.6398 17.5576 29.377C18.9139 29.1739 19.9417 28.8513 20.6198 28.4093C21.7112 27.6925 22.5695 26.7367 23.2052 25.5182C23.8304 24.2996 24.1483 22.9257 24.1483 21.3965C24.1483 19.5209 23.7032 17.9559 22.8238 16.7254ZM8.13772 6.28391H11.7086C12.9271 6.28391 13.7854 6.52285 14.2834 7.01267C14.7708 7.49053 15.0251 8.15955 15.0251 9.01972C15.0251 9.93962 14.7708 10.6445 14.2834 11.1343C13.7854 11.6241 12.9165 11.875 11.6556 11.875H8.13772V6.28391ZM15.2053 22.6151C14.6331 23.1647 13.6476 23.4394 12.2596 23.4394H8.13772V17.478H12.2384C13.6582 17.478 14.6437 17.7408 15.2053 18.2665C15.7774 18.8041 16.0529 19.497 16.0529 20.3691C16.0529 21.3129 15.7668 22.0536 15.2053 22.6151Z" fill="#626366" fill-opacity="0.7"/>
<path d="M45.9547 0H29.6368C29.3676 0 29.1494 0.246041 29.1494 0.549549V4.50392C29.1494 4.80743 29.3676 5.05347 29.6368 5.05347H45.9547C46.2239 5.05347 46.4421 4.80743 46.4421 4.50392V0.549549C46.4421 0.246041 46.2239 0 45.9547 0Z" fill="#626366" fill-opacity="0.7"/>
</svg>
