<svg width="42" height="42" viewBox="0 0 42 42" fill="none" xmlns="http://www.w3.org/2000/svg">
<path d="M35.4357 6.07877C31.6835 2.32424 26.4868 0 20.7584 0C15.0301 0 9.83331 2.32424 6.08115 6.07877C2.32424 9.83331 0 15.0301 0 20.7584C0 26.4868 2.32424 31.6835 6.08115 35.4357C9.83331 39.1902 15.0301 41.5168 20.7584 41.5144C26.4868 41.5144 31.6835 39.1902 35.4357 35.4357C39.1902 31.6835 41.5168 26.4868 41.5168 20.7584C41.5168 15.0301 39.1926 9.83331 35.4357 6.07877ZM39.133 20.7584C39.133 20.8013 39.1306 20.8466 39.1306 20.8895C36.9256 20.4914 34.8397 20.3102 32.8754 20.3102C30.6418 20.3102 28.5631 20.5439 26.6369 20.9515C25.9289 19.1541 25.1327 17.4878 24.2889 15.9502C27.7073 14.5438 30.1388 12.8894 31.8051 11.4186C33.1162 10.2624 33.9577 9.22543 34.4535 8.51505C37.3642 11.769 39.133 16.0527 39.133 20.7608V20.7584ZM32.7205 6.81776C32.5417 7.09905 32.227 7.55436 31.736 8.11933C30.4749 9.5687 28.0601 11.7451 23.793 13.5735C23.5594 13.6737 23.321 13.7714 23.0755 13.8691C21.5665 11.4352 19.9789 9.38753 18.5391 7.74507C16.7798 5.74027 15.2398 4.33142 14.3149 3.54714C16.3197 2.79623 18.489 2.38383 20.7584 2.38383C25.333 2.38383 29.5047 4.0549 32.7205 6.81776ZM7.76652 7.76652C9.04664 6.48879 10.5127 5.39938 12.1194 4.5412L11.9835 4.72714C12.0431 4.77005 15.8596 7.63065 19.6356 12.9895C20.0194 13.533 20.4008 14.1027 20.7775 14.6963C16.775 15.9741 11.5306 16.8871 4.71045 16.8871C4.08827 16.8871 3.4494 16.8775 2.801 16.8608C3.55906 13.3542 5.31594 10.2195 7.76414 7.76891L7.76652 7.76652ZM2.38383 20.7584C2.38383 20.2435 2.41005 19.7357 2.45296 19.2304C3.22056 19.2518 3.97862 19.2661 4.71284 19.2661C10.7797 19.2661 15.6999 18.5653 19.6761 17.4997C20.5033 17.278 21.2852 17.0396 22.0338 16.7893C22.8514 18.253 23.6262 19.8406 24.3127 21.5522C23.259 21.8717 22.2578 22.2411 21.3115 22.6536C16.4484 24.7656 12.9704 27.9194 10.7034 30.5417C9.49719 31.9386 8.63424 33.1829 8.08357 34.053C7.97868 33.9529 7.87141 33.8552 7.76891 33.7527C4.44108 30.4248 2.3886 25.8384 2.38622 20.7608L2.38383 20.7584ZM9.92628 35.5978C10.6772 34.3701 12.3602 31.9147 15.0682 29.4856C16.9729 27.7764 19.3806 26.0791 22.327 24.8085C23.2114 24.4271 24.1482 24.0862 25.1327 23.793C26.358 27.4617 27.1495 31.6239 27.1518 36.2676C27.1518 36.7968 27.1423 37.3332 27.1209 37.8743L27.4117 37.8862C25.3497 38.6872 23.1089 39.133 20.7608 39.133C16.7059 39.133 12.9657 37.8195 9.92866 35.5978H9.92628ZM33.7527 33.7527C32.5083 34.997 31.0875 36.0626 29.5309 36.9113C29.5333 36.6967 29.5381 36.4822 29.5381 36.27C29.5381 31.4284 28.7204 27.066 27.457 23.2209C29.1304 22.8872 30.935 22.6965 32.8778 22.6965C34.7706 22.6965 36.7968 22.8776 38.9613 23.2829C38.4035 27.3497 36.5227 30.9874 33.7551 33.7551L33.7527 33.7527Z" fill="#626366" fill-opacity="0.7"/>
<path d="M20.7588 0.943359C26.0562 0.943459 30.876 3.02512 34.4287 6.41406L34.7686 6.74609C38.3554 10.3307 40.5732 15.2905 40.5732 20.7588C40.5731 26.0559 38.4898 30.8758 35.1006 34.4287L34.7686 34.7686C31.1865 38.3529 26.227 40.5712 20.7588 40.5713H20.7578C16.2597 40.5731 12.1066 39.0695 8.78027 36.541H9.62988C12.7759 38.7649 16.6118 40.0762 20.7607 40.0762C23.2292 40.0762 25.5855 39.6075 27.7529 38.7656L27.6074 37.8936L28.0635 37.9121C28.0855 37.3574 28.0957 36.8081 28.0957 36.2676L28.0859 35.3818C27.9903 30.9837 27.2039 27.0169 26.0273 23.4941L25.7383 22.6279L24.8633 22.8887C23.8441 23.1922 22.8722 23.546 21.9531 23.9424C18.8978 25.26 16.4055 27.0181 14.4385 28.7832C11.6433 31.2905 9.90439 33.8248 9.12109 35.1055L8.41602 36.2568C7.83273 35.7917 7.27557 35.2954 6.74902 34.7686L6.74805 34.7676L6.41602 34.4277C3.02531 30.8751 0.943459 26.056 0.943359 20.7588C0.943359 15.2905 3.1612 10.3307 6.74805 6.74609H6.74902C10.3312 3.16172 15.2905 0.943359 20.7588 0.943359ZM32.8779 21.7529C30.8729 21.7529 29.0064 21.9501 27.2725 22.2959L26.2285 22.5039L26.5605 23.5156C27.7952 27.2732 28.5947 31.5361 28.5947 36.2695C28.5947 36.4755 28.5895 36.671 28.5869 36.9004L28.5693 38.5098L29.9824 37.7393C31.3401 36.9991 32.5969 36.0995 33.7334 35.0684L33.7549 35.0898L34.4219 34.4219C37.3308 31.513 39.3099 27.688 39.8965 23.4111L40.0186 22.5205L39.1348 22.3555C36.9154 21.94 34.8311 21.7529 32.8779 21.7529ZM21.7344 15.8945C21.0026 16.1392 20.2389 16.3715 19.4316 16.5879C15.544 17.6297 10.7069 18.3223 4.71289 18.3223C3.99049 18.3223 3.24184 18.3084 2.47949 18.2871L1.58789 18.2627L1.5127 19.1504C1.46803 19.6764 1.44043 20.2119 1.44043 20.7588V21.1494L1.44727 21.1562C1.55324 26.3364 3.69043 31.0088 7.10156 34.4199C7.21296 34.5313 7.34922 34.6567 7.43164 34.7354L8.26465 35.5303L8.88086 34.5576C9.41094 33.72 10.2471 32.5142 11.418 31.1582L11.417 31.1572C13.6194 28.6099 16.989 25.5592 21.6875 23.5186H21.6885C22.6006 23.1211 23.5678 22.764 24.5869 22.4551L25.5713 22.1562L25.1885 21.2012C24.4857 19.4491 23.693 17.8248 22.8574 16.3291L22.4766 15.6465L21.7344 15.8945ZM33.6797 7.97461C33.2809 8.5459 32.625 9.36811 31.6289 10.3037L31.1807 10.7109C29.5934 12.112 27.2515 13.7104 23.9297 15.0771L22.9541 15.4795L23.4619 16.4043C24.2878 17.9091 25.0664 19.5392 25.7588 21.2969L26.0518 22.04L26.832 21.875C28.6945 21.4808 30.7078 21.2539 32.875 21.2539C34.781 21.2539 36.8112 21.4299 38.9629 21.8184L40.0742 22.0186V20.8896C40.0742 20.8832 40.0745 20.874 40.0752 20.8496L40.0762 20.7588C40.0757 15.81 38.2158 11.305 35.1572 7.88574L34.3623 6.99707L33.6797 7.97461ZM11.6748 3.70898C9.98587 4.6111 8.44478 5.75597 7.09961 7.09863V7.09961L7.09668 7.10156C4.52394 9.67681 2.67629 12.973 1.87891 16.6611L1.6377 17.7744L2.77637 17.8037C3.43133 17.8206 4.07926 17.8311 4.71094 17.8311C11.6152 17.831 16.9577 16.9058 21.0645 15.5947L22.2295 15.2236L21.5742 14.1904C21.382 13.8874 21.1878 13.5907 20.9932 13.2998L20.4062 12.4453C16.5559 6.98119 12.6575 4.04905 12.5352 3.96094L12.2441 4.36426L11.6748 3.70898ZM20.7588 1.44043C18.3743 1.44043 16.0928 1.87345 13.9844 2.66309L12.4785 3.22754L13.7051 4.2666C14.5999 5.02533 16.1052 6.40178 17.8291 8.36621V8.36719C19.2397 9.97628 20.7955 11.9824 22.2734 14.3662L22.6904 15.0381L23.4248 14.7461C23.676 14.6461 23.9223 14.5445 24.165 14.4404C28.5685 12.5535 31.0984 10.2897 32.4482 8.73828C32.9732 8.13427 33.3155 7.64066 33.5166 7.32422L33.9551 6.63477L33.335 6.10254C29.9552 3.19878 25.5679 1.44052 20.7588 1.44043Z" stroke="#626366" stroke-opacity="0.7" stroke-width="1.88713"/>
</svg>
