<svg width="46" height="34" viewBox="0 0 46 34" fill="none" xmlns="http://www.w3.org/2000/svg">
<g clip-path="url(#clip0_1_27879)">
<path d="M45.7367 25.3646C46.1362 26.7392 45.254 27.8692 44.1975 28.9247C42.3687 30.7513 40.0974 31.8175 37.6652 32.5858C36.2467 33.0325 34.7933 33.3436 33.305 33.4792C32.7875 33.527 32.3987 33.3728 32.0983 32.9474C31.6318 32.2881 31.1598 31.626 30.6584 30.9932C30.3956 30.6609 30.4975 30.5678 30.8514 30.4721C33.12 29.8633 35.2599 28.9593 37.2094 27.6405C37.4507 27.4757 37.6947 27.3055 37.9119 27.1114C38.349 26.7153 38.3919 26.1489 38.038 25.7288C37.7028 25.33 37.145 25.2529 36.6865 25.5826C32.8894 28.3185 28.548 29.3421 23.9518 29.5203C20.1011 29.6718 16.3603 29.1374 12.7832 27.6618C11.5175 27.138 10.3108 26.5052 9.21402 25.681C8.64822 25.2556 8.06364 25.2901 7.70163 25.7581C7.33694 26.2287 7.44152 26.811 7.99928 27.2337C10.0212 28.7652 12.3193 29.7383 14.7434 30.4349C15.3762 30.6157 15.3789 30.6104 14.9874 31.1421C14.5396 31.7536 14.0864 32.3598 13.6466 32.9767C13.3946 33.3276 13.0647 33.535 12.6357 33.4898C8.7823 33.0724 5.19439 31.9663 2.15083 29.4671C1.91217 29.2703 1.69229 29.047 1.46972 28.8316C0.402461 27.8 -0.0989885 26.6328 0.010955 25.0695C0.458773 18.7442 1.86122 12.6663 4.39797 6.8462C4.56154 6.46865 4.77606 6.11237 4.93696 5.73217C5.71461 3.91356 7.23504 2.9112 8.94587 2.11091C11.4102 0.957002 14.0086 0.28699 16.7143 0.00515892C17.4276 -0.0692869 18.1007 0.544891 18.0792 1.24149C18.0712 1.50205 17.8272 1.43824 17.6877 1.46217C16.0144 1.75995 14.3867 2.21992 12.8019 2.81815C11.6676 3.24621 10.5816 3.77531 9.54385 4.40278C8.93514 4.76969 8.75816 5.3174 9.06654 5.83054C9.36687 6.33305 9.93268 6.45802 10.5119 6.12035C13.8477 4.16615 17.492 3.25685 21.3239 3.01756C25.727 2.74104 29.9343 3.52272 33.9272 5.39982C34.3643 5.60455 34.7799 5.85447 35.2009 6.0911C35.8203 6.4394 36.3861 6.35432 36.6999 5.85181C37.0244 5.33335 36.8366 4.76172 36.2065 4.38683C34.0371 3.092 31.6881 2.24651 29.2264 1.6988C28.8376 1.61372 28.4488 1.53927 28.0573 1.47015C27.7891 1.42229 27.6336 1.37177 27.7623 1.02081C28.0921 0.119486 28.3415 -0.0772632 29.3471 0.0450406C32.5033 0.425246 35.4986 1.27606 38.274 2.87664C39.8695 3.79658 40.6552 5.28549 41.3497 6.84088C43.5056 11.6559 44.8142 16.705 45.4525 21.9268C45.5168 22.4559 45.5785 22.985 45.6241 23.5141C45.667 24.0379 45.6884 24.5696 45.7367 25.3646ZM19.8866 19.1324C19.8973 17.6967 19.5755 16.7608 18.9373 15.9871C17.7011 14.4875 15.5773 14.3626 14.1749 15.7053C12.5767 17.2367 12.5311 20.0391 14.0784 21.621C15.4218 22.993 17.4544 22.9903 18.7764 21.6024C19.538 20.8048 19.8785 19.837 19.8866 19.1324ZM25.8745 18.7017C25.8611 19.2973 25.9844 19.8636 26.2097 20.4086C27.2394 22.8999 30.2695 23.4184 31.8999 21.3844C33.0181 19.9912 33.1334 17.9174 32.1788 16.4151C31.2054 14.8863 29.4007 14.32 27.9098 15.1283C26.4966 15.894 25.9254 17.1623 25.8745 18.7017Z" fill="#4F4F52"/>
</g>
<defs>
<clipPath id="clip0_1_27879">
<rect width="45.8357" height="33.4953" fill="white"/>
</clipPath>
</defs>
</svg>
