<svg width="39" height="38" viewBox="0 0 39 38" fill="none" xmlns="http://www.w3.org/2000/svg">
<path d="M24.0316 33.8588C23.9852 32.6596 24.1474 31.455 23.9342 30.2614C23.8072 29.5504 23.5374 28.9041 23.0841 28.3374C23.0007 28.2329 22.8338 28.1377 22.8987 27.9935C22.9664 27.8418 23.1611 27.8548 23.3094 27.8363C24.0918 27.7364 24.8631 27.5857 25.6215 27.3685C29.0414 26.3894 31.093 23.9255 31.4397 20.3836C31.5621 19.1382 31.6316 17.8975 31.3637 16.6595C31.1143 15.5075 30.6165 14.4748 29.8572 13.5752C29.6523 13.333 29.6078 13.1203 29.6978 12.8226C30.1233 11.4173 30.0037 10.0278 29.5791 8.64001C29.4419 8.19253 29.1805 8.06772 28.7503 8.12227C27.2531 8.31272 25.9561 8.98764 24.7232 9.79569C24.3254 10.0564 23.9741 10.1119 23.5161 10.0028C20.7192 9.33897 17.9148 9.35191 15.1188 10.0093C14.671 10.1147 14.3289 10.049 13.9507 9.80401C12.701 8.99226 11.3976 8.30348 9.87811 8.12412C9.44888 8.07327 9.21433 8.19068 9.08825 8.61412C8.66458 10.0324 8.55147 11.4543 8.97792 12.8901C9.0456 13.1194 9.03633 13.2979 8.87966 13.4865C7.22115 15.4789 6.88554 17.7967 7.21651 20.2754C7.38894 21.567 7.69672 22.8179 8.36514 23.956C9.54714 25.9678 11.4013 27.0033 13.6003 27.5312C14.1852 27.6717 14.7767 27.7827 15.3774 27.8474C15.8141 27.8945 15.8484 27.9814 15.5823 28.305C15.1188 28.8699 14.8638 29.5273 14.735 30.2309C14.6794 30.5332 14.5283 30.6783 14.2603 30.7837C12.0845 31.6399 10.1785 31.0019 8.95012 29.0123C8.33455 28.0157 7.50854 27.2908 6.30985 27.0782C6.26442 27.0699 6.21899 27.0551 6.17356 27.0523C5.84723 27.0319 5.43933 26.9866 5.30583 27.313C5.16306 27.6606 5.55521 27.8446 5.80274 27.9925C6.84475 28.6166 7.52986 29.5393 7.95724 30.6349C8.71372 32.5764 10.2267 33.3318 12.1791 33.4547C12.8141 33.4945 13.4473 33.4344 14.0666 33.2985C14.5014 33.2033 14.6098 33.3595 14.6043 33.7654C14.5904 34.7204 14.6098 35.6755 14.6126 36.6306C14.6154 37.7039 14.0109 38.1329 12.9763 37.7798C11.0295 37.115 9.24028 36.1498 7.62349 34.885C3.34417 31.5391 0.787335 27.1715 0.152298 21.7898C-0.512406 16.1556 0.997773 11.0974 4.70139 6.75949C7.83207 3.09275 11.8259 0.902512 16.603 0.212803C21.0371 -0.427905 25.2321 0.373673 29.0766 2.67856C34.2793 5.79704 37.4359 10.3855 38.3936 16.3572C39.8185 25.242 35.084 33.6452 27.127 37.1927C26.6199 37.4183 26.1054 37.6355 25.5779 37.8047C24.6128 38.1135 24.0325 37.679 24.0279 36.6786C24.0251 36.2006 24.0306 35.7236 24.0316 35.2456C24.0325 34.7833 24.0316 34.321 24.0316 33.8588Z" fill="#4F4F52"/>
</svg>
