<svg width="38" height="32" viewBox="0 0 38 32" fill="none" xmlns="http://www.w3.org/2000/svg">
<path d="M37.7382 17.8499V31.2846H30.0962V19.6649C30.0962 18.3348 29.8645 17.3993 29.4053 16.8501C28.9419 16.2966 28.294 16.0263 27.4616 16.0263C26.539 16.0263 25.7924 16.3953 25.2174 17.1376C24.6425 17.8799 24.3593 19.2144 24.3593 21.1367V31.2889H16.7559V10.1521H23.8358V13.5933C24.8913 12.1902 25.9641 11.1862 27.0496 10.5812C28.1352 9.97614 29.4525 9.67578 31.0101 9.67578C33.1169 9.67578 34.7646 10.3452 35.9532 11.6753C37.1461 13.0141 37.7425 15.0694 37.7425 17.8585L37.7382 17.8499Z" fill="#626366" fill-opacity="0.7"/>
<path d="M8.08036 10.1475H0.472656V31.2843H8.08036V10.1475Z" fill="#626366" fill-opacity="0.7"/>
<path d="M3.88326 7.76647C6.02791 7.76647 7.76646 6.02789 7.76646 3.88323C7.76646 1.73858 6.02791 0 3.88326 0C1.7386 0 0 1.73858 0 3.88323C0 6.02789 1.7386 7.76647 3.88326 7.76647Z" fill="#626366" fill-opacity="0.7"/>
</svg>
