<svg width="41" height="41" viewBox="0 0 41 41" fill="none" xmlns="http://www.w3.org/2000/svg">
<path d="M0 14.1919C0.0865795 13.9608 0.174512 13.731 0.258386 13.4999C0.865795 11.8307 2.39988 10.6967 4.17341 10.6859C7.79892 10.6657 11.4244 10.6575 15.05 10.6886C17.3457 10.7076 19.1882 12.62 19.199 14.9055C19.2112 17.2261 17.3673 19.1643 15.0432 19.1832C11.4177 19.2143 7.79216 19.2035 4.16664 19.1846C2.39988 19.1751 0.854973 18.0317 0.254327 16.3666C0.171806 16.1368 0.0852267 15.9084 0 15.6786C0 15.1839 0 14.6879 0 14.1919Z" fill="#4F4F52"/>
<path d="M14.0689 40.5465C13.4574 40.2289 12.7783 40.0505 12.2372 39.5856C11.2591 38.7463 10.6936 37.7001 10.6855 36.4135C10.6652 32.7669 10.6557 29.1204 10.6882 25.4739C10.7085 23.2168 12.6133 21.3922 14.8778 21.3665C17.1736 21.3408 19.1514 23.1438 19.1825 25.4279C19.2325 29.1191 19.2177 32.8115 19.1825 36.5027C19.1662 38.2192 17.9852 39.718 16.3172 40.3114C16.1075 40.3857 15.8992 40.4668 15.6909 40.5452C15.1511 40.5465 14.61 40.5465 14.0689 40.5465Z" fill="#4F4F52"/>
<path d="M26.3801 0C26.9808 0.290587 27.645 0.435206 28.1888 0.863652C29.2629 1.71244 29.8785 2.80314 29.8866 4.16822C29.9096 7.79312 29.915 11.4167 29.8866 15.0416C29.869 17.3379 27.9602 19.1801 25.6685 19.1909C23.3309 19.2017 21.4031 17.373 21.3828 15.0429C21.3517 11.4194 21.3598 7.79447 21.3815 4.16958C21.3923 2.40443 22.5476 0.859592 24.2089 0.258145C24.4375 0.1757 24.704 0.18922 24.892 0.00135289C25.3885 1.31992e-06 25.8836 0 26.3801 0Z" fill="#4F4F52"/>
<path d="M40.5839 26.3558C40.3214 26.8491 40.2362 27.414 39.917 27.8898C39.0796 29.1386 37.9256 29.855 36.4227 29.8671C32.7958 29.8969 29.1676 29.8982 25.5393 29.8712C23.2044 29.8536 21.3673 27.9371 21.374 25.6029C21.3808 23.3161 23.2193 21.3969 25.5163 21.3753C29.1432 21.3415 32.7714 21.3523 36.3997 21.3725C38.1935 21.382 39.7492 22.5565 40.3417 24.2541C40.4134 24.4609 40.3999 24.7055 40.5839 24.869C40.5839 25.3651 40.5839 25.8611 40.5839 26.3558Z" fill="#4F4F52"/>
<path d="M0 24.8687C0.343613 23.8861 0.749454 22.9495 1.6166 22.2885C2.35659 21.7249 3.17639 21.3884 4.10306 21.3708C5.40716 21.3465 6.71262 21.3708 8.01673 21.3546C8.38198 21.3506 8.53891 21.4492 8.53215 21.8452C8.51185 23.1927 8.55514 24.543 8.51185 25.8905C8.44962 27.857 6.89254 29.5275 4.8931 29.8411C2.93965 30.1479 0.952375 28.9734 0.27462 27.1109C0.183982 26.8595 0.0919908 26.6081 0 26.3554C0 25.8607 0 25.3647 0 24.8687Z" fill="#4F4F52"/>
<path d="M15.6921 0C15.9207 0.206789 16.2346 0.189222 16.4984 0.306808C18.1501 1.04206 19.0957 2.29766 19.185 4.10606C19.25 5.40761 19.1823 6.71458 19.2094 8.01884C19.2188 8.45675 19.043 8.54189 18.6534 8.53648C17.4156 8.51756 16.1764 8.54054 14.9386 8.52702C12.7741 8.50269 11.0276 6.993 10.7165 4.89807C10.408 2.81666 11.658 0.862302 13.7156 0.197332C13.882 0.143269 14.0809 0.163541 14.204 0.00135289C14.7005 1.31992e-06 15.1956 0 15.6921 0Z" fill="#4F4F52"/>
<path d="M24.8919 40.5468C24.5983 40.4387 24.2966 40.3455 24.0125 40.2184C22.3851 39.4913 21.4733 38.237 21.3881 36.4584C21.3259 35.1582 21.3881 33.8512 21.3624 32.5483C21.3543 32.1252 21.5017 32.0131 21.9062 32.0198C23.1427 32.0428 24.3805 32.0198 25.617 32.0306C27.7909 32.0496 29.5699 33.5984 29.8634 35.7123C30.1475 37.7599 28.8948 39.7048 26.8764 40.3549C26.7073 40.409 26.545 40.482 26.3786 40.5468C25.8835 40.5468 25.3883 40.5468 24.8919 40.5468Z" fill="#4F4F52"/>
<path d="M40.5846 15.6778C40.3912 15.863 40.4074 16.1306 40.3249 16.3577C39.7094 18.0349 38.1942 19.1567 36.422 19.1905C35.1396 19.2149 33.8558 19.1811 32.5733 19.2054C32.1539 19.2135 32.0335 19.0689 32.0403 18.6621C32.062 17.4024 32.0322 16.1428 32.0538 14.8831C32.0904 12.7328 33.6231 11.0109 35.7402 10.7122C37.7505 10.4283 39.7053 11.6691 40.3668 13.6397C40.4291 13.8248 40.4101 14.0492 40.5873 14.1911C40.5846 14.6871 40.5846 15.1831 40.5846 15.6778Z" fill="#4F4F52"/>
</svg>
