<svg width="38" height="38" viewBox="0 0 38 38" fill="none" xmlns="http://www.w3.org/2000/svg">
<path d="M26.7633 0H11.1393C4.9883 0 0 4.98831 0 11.1393V26.7633C0 32.9143 4.9883 37.9026 11.1393 37.9026H26.7633C32.9143 37.9026 37.9026 32.9143 37.9026 26.7633V11.1393C37.9026 4.98831 32.9143 0 26.7633 0ZM29.3137 25.2362C28.2528 25.5684 26.8597 25.9649 26.7927 26.1659C26.7258 26.3668 27.1919 27.0285 26.5945 27.2937C25.9971 27.5589 23.3449 27.492 22.8814 27.6929C22.4179 27.8938 21.0248 29.7477 18.0404 29.5494C15.056 29.3512 14.3916 27.6929 12.8673 27.5589C11.3429 27.425 10.6464 27.8563 9.94983 27.425C9.7114 27.2776 9.45154 26.5865 9.65247 26.19C9.65247 26.19 6.30371 25.2362 6.50195 24.6388C6.7002 24.0414 11.3429 22.517 11.6081 19.0022C11.6081 19.0022 11.8064 18.2735 10.6785 17.6761C9.55066 17.0787 8.29154 16.0848 8.68803 15.4873C9.0872 14.8899 11.8707 15.6213 11.8707 15.6213L11.9135 12.4895C11.9323 11.142 12.4172 9.83195 13.32 8.83268C14.2818 7.76912 15.7767 6.66805 17.9038 6.53678C22.1473 6.27155 24.2048 9.65514 24.4031 11.1795C24.6013 12.7038 24.6013 15.8892 24.6013 15.8892C24.6013 15.8892 27.1866 15.0265 27.3875 15.3587C27.5884 15.6909 28.1162 16.0231 26.9883 17.017C25.8604 18.011 24.9335 18.1449 24.7326 18.7423C24.5317 19.3397 26.2569 23.0529 29.7075 24.379C29.7102 24.3736 30.3746 24.904 29.3137 25.2362Z" fill="#4F4F52"/>
</svg>
