<svg width="33" height="39" viewBox="0 0 33 39" fill="none" xmlns="http://www.w3.org/2000/svg">
<path d="M10.7746 31.1801C10.7746 31.1801 12.7336 31.2065 13.7098 30.8858C15.3744 30.337 16.5855 28.8989 16.9462 27.1863C17.1448 26.2473 17.2407 25.2886 17.2275 24.3265L17.0753 11.1747C17.0488 8.93977 16.8999 6.70813 16.5855 4.49633C16.4565 3.60037 16.3208 2.19857 16.205 0H21.1488C21.1488 0 22.6082 5.3427 30.388 8.01736L30.4674 13.1187C30.4674 13.1187 22.3633 13.3601 21.4731 10.6887L21.9927 24.0951C22.1383 27.8938 20.5697 31.6099 17.6047 33.987C17.4426 34.1159 17.2738 34.2449 17.0984 34.3705C15.1328 35.7987 12.7634 36.5724 10.3378 36.6881L10.1062 36.698C6.47933 36.8732 2.98486 35.0284 1.29719 31.8182C0.602262 30.4924 0.0992748 28.8426 0 26.7995L0.0761042 24.7298C0.181997 21.8998 1.27072 19.1656 3.26614 17.1522C4.93065 15.4727 7.39597 14.0808 10.9401 14.2494L11.1816 18.8648C11.1816 18.8648 8.50785 18.7028 7.77653 19.1888C7.25699 19.5359 5.24502 20.6666 4.61297 23.2619C4.11329 25.3183 5.91678 31.5801 10.7746 31.1801Z" fill="#4F4F52"/>
<path d="M12.3762 33.3061C12.3762 33.3061 14.3352 33.3325 15.3114 33.0118C16.9759 32.463 18.1871 31.0248 18.5478 29.3123C18.7463 28.3733 18.8423 27.4145 18.8291 26.4525L18.6768 13.3007C18.6503 11.0657 18.5014 8.8341 18.1871 6.62231C18.058 5.72635 17.9223 4.32455 17.8065 2.12598H22.7504C22.7504 2.12598 24.2097 7.46868 31.9896 10.1433L32.069 15.2447C32.069 15.2447 23.9649 15.486 23.0747 12.8147L23.5942 26.221C23.7398 30.0198 22.1713 33.7359 19.2063 36.113C19.0441 36.2419 18.8754 36.3708 18.7 36.4965C16.7343 37.9247 14.365 38.6983 11.9394 38.8141L11.7077 38.824C8.08089 38.9992 4.58642 37.1544 2.89875 33.9441C2.20382 32.6184 1.70084 30.9686 1.60156 28.9254L1.67767 26.8558C1.78356 24.0258 2.87228 21.2916 4.8677 19.2782C6.53221 17.5986 8.99753 16.2068 12.5416 16.3754L12.7832 20.9907C12.7832 20.9907 10.1094 20.8287 9.37809 21.3147C8.85855 21.6619 6.84658 22.7926 6.21453 25.3879C5.71485 27.4443 7.51834 33.7061 12.3762 33.3061Z" fill="#4F4F52"/>
</svg>
